<?xml version="1.0" encoding="UTF-8" standalone="no"?>
<svg width="512px" height="512px" viewBox="0 0 512 512" version="1.1" xmlns="http://www.w3.org/2000/svg" xmlns:xlink="http://www.w3.org/1999/xlink" xmlns:sketch="http://www.bohemiancoding.com/sketch/ns">
    <!-- Generator: Sketch 3.2.2 (9983) - http://www.bohemiancoding.com/sketch -->
    <title>Curtain Icon</title>
    <desc>Created with Sketch.</desc>
    <defs></defs>
    <g id="Page-1" stroke="none" stroke-width="1" fill="none" fill-rule="evenodd" sketch:type="MSPage">
        <rect id="rectangle" fill="#E25F4A" sketch:type="MSShapeGroup" x="0" y="0" width="512" height="512"></rect>
        <circle id="circle" fill="#FFFFFF" sketch:type="MSShapeGroup" cx="256" cy="256" r="181"></circle>
        <g id="gear" sketch:type="MSLayerGroup" transform="translate(136.000000, 136.000000)" fill="#CFCFCF">
            <path d="M229.26,126.5472 C215.8632,122.9568 212.8272,91.5432 223.8168,85.2 C227.4192,83.112 230.2128,80.1504 232.0584,76.7352 C229.2,66.312 219.4464,51.2952 213.9432,44.616 C209.9208,44.4288 205.8072,45.348 202.0632,47.5104 C190.0752,54.4368 165.2928,35.9112 168.984,22.1232 C170.1384,17.8152 169.5288,12.5904 168.588,9.5376 C161.7744,6.0144 145.6392,1.2744 133.656,0.1008 C131.0736,1.98 128.1168,6.5232 126.9648,10.86 C123.0552,25.44 92.1168,27.5592 85.4808,16.068 C83.2656,12.228 79.1856,8.652 76.3656,7.476 C68.6136,9.8256 51.768,19.5912 44.9544,25.2288 C45.4248,29.2224 45.516,33.8616 47.8056,37.8216 C54.4368,49.3152 36.4776,74.8728 22.296,71.0736 C17.6304,69.8256 12.7344,70.1808 8.7408,71.8248 C5.4504,79.1112 0.4704,98.328 0,106.08 C0.9408,108.1944 6.5496,111.9072 11.0352,113.1072 C30.3384,118.2816 30.4896,146.5896 16.5048,154.6632 C12.5544,156.9456 9.1704,160.1136 7.7616,164.1096 C10.1112,171.6264 19.5528,188.1528 25.6608,195.2016 C29.6544,195.6696 34.2936,194.6448 38.256,192.3528 C50.7456,185.136 75.7248,202.1064 71.5032,217.8672 C70.4064,221.9688 71.0136,226.284 71.7168,230.5152 C81.1152,234.5088 98.1168,240.1272 107.5152,239.892 C110.568,237.072 112.452,233.1432 113.5248,229.1328 C117.2208,215.3376 147.732,210.936 154.9416,223.4256 C156.9552,226.9176 159.7752,230.232 163.0632,232.1112 C172.9296,229.2912 190.2744,219.5856 196.1544,213.4776 C196.3848,209.016 194.7048,205.2888 192.6168,201.6648 C184.824,188.1792 203.028,164.5656 217.9968,168.5784 C222.096,169.6728 226.56,169.3032 230.3208,168.3648 C233.6088,160.14 239.0616,145.4472 239.9976,133.2312 C236.7096,129.4728 233.5896,127.7088 229.26,126.5472 L229.26,126.5472 Z M183.6504,135.66 C174.5136,169.7808 139.4496,190.0224 105.3336,180.8832 C71.2224,171.7392 50.9808,136.668 60.12,102.5496 C69.2592,68.4312 104.3232,48.1872 138.4344,57.3288 C172.548,66.4704 192.792,101.5368 183.6504,135.66 L183.6504,135.66 Z" id="shape" sketch:type="MSShapeGroup"></path>
        </g>
    </g>
</svg>